<svg width="24" height="24" viewBox="0 0 24 24" fill="none" xmlns="http://www.w3.org/2000/svg">
<path d="M18.707 10.293L12.707 4.293C12.317 3.903 11.684 3.903 11.293 4.293L5.29299 10.293C4.90299 10.683 4.90299 11.316 5.29299 11.707C5.48799 11.902 5.74299 12 5.99999 12C6.25699 12 6.51199 11.902 6.70699 11.707L11 7.414V20C11 20.553 11.447 21 12 21C12.553 21 13 20.553 13 20V7.414L17.293 11.707C17.488 11.902 17.743 12 18 12C18.257 12 18.512 11.902 18.707 11.707C19.097 11.317 19.097 10.684 18.707 10.293Z" fill="black"/>
</svg>
