<svg width="24" height="24" viewBox="0 0 24 24" fill="none" xmlns="http://www.w3.org/2000/svg">
<path d="M11.96 14.945C11.893 14.945 11.824 14.935 11.757 14.918C10.627 14.6 9.66003 13.932 8.96203 12.986C8.13003 11.861 7.78603 10.478 7.99403 9.093C8.20203 7.708 8.93603 6.488 10.062 5.655L13.592 3.047C15.914 1.331 19.202 1.823 20.922 4.147C21.752 5.274 22.097 6.657 21.889 8.042C21.681 9.427 20.946 10.647 19.819 11.48L18.339 12.574C18.006 12.82 17.535 12.749 17.289 12.416C17.043 12.082 17.113 11.612 17.447 11.366L18.927 10.271C19.73 9.679 20.254 8.808 20.403 7.821C20.551 6.833 20.305 5.846 19.713 5.043C18.488 3.387 16.141 3.033 14.483 4.259L10.953 6.867C10.151 7.46 9.62703 8.331 9.47803 9.317C9.32803 10.307 9.57503 11.292 10.168 12.095C10.666 12.77 11.355 13.245 12.16 13.472C12.56 13.586 12.793 14 12.68 14.4C12.588 14.73 12.286 14.947 11.958 14.947L11.96 14.945Z" fill="black"/>
<path d="M7.27004 22.054C5.66004 22.054 4.07304 21.319 3.04504 19.929C2.21304 18.802 1.86904 17.419 2.07704 16.035C2.28504 14.651 3.02004 13.43 4.14704 12.597L5.62504 11.503C5.95904 11.258 6.43004 11.328 6.67504 11.661C6.92004 11.994 6.85204 12.465 6.51804 12.711L5.03804 13.806C4.23504 14.399 3.71204 15.27 3.56304 16.256C3.41504 17.246 3.66004 18.231 4.25304 19.034C5.47804 20.691 7.82304 21.044 9.48304 19.819L13.011 17.211C14.669 15.986 15.021 13.641 13.796 11.981C13.298 11.307 12.609 10.831 11.804 10.605C11.404 10.492 11.171 10.078 11.284 9.67801C11.396 9.27801 11.812 9.04801 12.21 9.15601C13.34 9.47401 14.306 10.142 15.004 11.088C16.721 13.412 16.228 16.7 13.904 18.418L10.374 21.026C9.44104 21.719 8.35104 22.052 7.26904 22.052L7.27004 22.054Z" fill="black"/>
</svg>
